<svg xmlns="http://www.w3.org/2000/svg" xmlns:xlink="http://www.w3.org/1999/xlink" width="200" zoomAndPan="magnify" viewBox="0 0 150 30.000001" height="40" preserveAspectRatio="xMidYMid meet" version="1.0"><defs><g/><clipPath id="8a219106fe"><path d="M 30 20 L 52 20 L 52 29.03125 L 30 29.03125 Z M 30 20 " clip-rule="nonzero"/></clipPath><clipPath id="4ed42bb22c"><path d="M 25.859375 17 L 57 17 L 57 22 L 25.859375 22 Z M 25.859375 17 " clip-rule="nonzero"/></clipPath></defs><g fill="#ffffff" fill-opacity="1"><g transform="translate(56.869738, 21.312106)"><g><path d="M 0.433594 -2.429688 C 0.488281 -1.089844 1.320312 0.1875 3.753906 0.1875 C 6.0625 0.1875 6.960938 -0.753906 6.960938 -2.210938 C 6.960938 -3.496094 6.207031 -4.207031 4.707031 -4.375 L 3.164062 -4.5625 C 2.554688 -4.628906 2.296875 -4.953125 2.296875 -5.382812 C 2.296875 -5.960938 2.773438 -6.328125 3.675781 -6.328125 C 4.652344 -6.328125 5.140625 -5.882812 5.230469 -5.195312 L 6.882812 -5.195312 C 6.792969 -6.503906 5.882812 -7.570312 3.675781 -7.570312 C 1.597656 -7.570312 0.597656 -6.617188 0.597656 -5.285156 C 0.597656 -4.0625 1.332031 -3.339844 2.640625 -3.1875 L 4.273438 -2.976562 C 4.929688 -2.886719 5.261719 -2.597656 5.261719 -2.042969 C 5.261719 -1.453125 4.894531 -1.066406 3.773438 -1.066406 C 2.609375 -1.066406 2.121094 -1.644531 2.074219 -2.429688 Z M 0.433594 -2.429688 "/></g></g></g><g fill="#ffffff" fill-opacity="1"><g transform="translate(64.283624, 21.312106)"><g><path d="M 2.332031 0.144531 C 3.464844 0.144531 4.128906 -0.421875 4.386719 -1.1875 C 4.386719 -0.734375 4.417969 -0.367188 4.472656 0 L 5.90625 0 C 5.851562 -0.476562 5.816406 -0.921875 5.816406 -1.441406 L 5.816406 -3.839844 C 5.816406 -5.019531 4.996094 -5.738281 3.308594 -5.738281 C 1.621094 -5.738281 0.644531 -4.929688 0.597656 -3.742188 L 2.210938 -3.742188 C 2.230469 -4.308594 2.585938 -4.605469 3.339844 -4.605469 C 4.085938 -4.605469 4.308594 -4.351562 4.308594 -3.964844 C 4.308594 -3.640625 4.128906 -3.496094 3.617188 -3.40625 L 2.308594 -3.1875 C 0.878906 -2.941406 0.488281 -2.363281 0.488281 -1.476562 C 0.488281 -0.476562 1.210938 0.144531 2.332031 0.144531 Z M 2.886719 -0.976562 C 2.441406 -0.976562 2.109375 -1.199219 2.109375 -1.644531 C 2.109375 -2.066406 2.34375 -2.277344 2.929688 -2.421875 L 3.398438 -2.53125 C 3.742188 -2.609375 4.019531 -2.6875 4.308594 -2.886719 L 4.308594 -2.640625 C 4.308594 -1.609375 3.753906 -0.976562 2.886719 -0.976562 Z M 2.886719 -0.976562 "/></g></g></g><g fill="#ffffff" fill-opacity="1"><g transform="translate(70.709733, 21.312106)"><g><path d="M 4.242188 -5.726562 C 3.285156 -5.726562 2.652344 -5.363281 2.265625 -4.742188 L 2.265625 -7.769531 L 0.621094 -7.769531 L 0.621094 0 L 2.265625 0 L 2.265625 -0.800781 C 2.652344 -0.1875 3.285156 0.175781 4.242188 0.175781 C 6.0625 0.175781 6.804688 -1.175781 6.804688 -2.785156 C 6.804688 -4.363281 6.0625 -5.726562 4.242188 -5.726562 Z M 3.742188 -1.109375 C 2.699219 -1.109375 2.265625 -1.644531 2.265625 -2.773438 C 2.265625 -3.90625 2.699219 -4.441406 3.742188 -4.441406 C 4.785156 -4.441406 5.152344 -3.929688 5.152344 -2.773438 C 5.152344 -1.632812 4.785156 -1.109375 3.742188 -1.109375 Z M 3.742188 -1.109375 "/></g></g></g><g fill="#ffffff" fill-opacity="1"><g transform="translate(77.912746, 21.312106)"><g><path d="M 2.332031 0.144531 C 3.464844 0.144531 4.128906 -0.421875 4.386719 -1.1875 C 4.386719 -0.734375 4.417969 -0.367188 4.472656 0 L 5.90625 0 C 5.851562 -0.476562 5.816406 -0.921875 5.816406 -1.441406 L 5.816406 -3.839844 C 5.816406 -5.019531 4.996094 -5.738281 3.308594 -5.738281 C 1.621094 -5.738281 0.644531 -4.929688 0.597656 -3.742188 L 2.210938 -3.742188 C 2.230469 -4.308594 2.585938 -4.605469 3.339844 -4.605469 C 4.085938 -4.605469 4.308594 -4.351562 4.308594 -3.964844 C 4.308594 -3.640625 4.128906 -3.496094 3.617188 -3.40625 L 2.308594 -3.1875 C 0.878906 -2.941406 0.488281 -2.363281 0.488281 -1.476562 C 0.488281 -0.476562 1.210938 0.144531 2.332031 0.144531 Z M 2.886719 -0.976562 C 2.441406 -0.976562 2.109375 -1.199219 2.109375 -1.644531 C 2.109375 -2.066406 2.34375 -2.277344 2.929688 -2.421875 L 3.398438 -2.53125 C 3.742188 -2.609375 4.019531 -2.6875 4.308594 -2.886719 L 4.308594 -2.640625 C 4.308594 -1.609375 3.753906 -0.976562 2.886719 -0.976562 Z M 2.886719 -0.976562 "/></g></g></g><g fill="#ffffff" fill-opacity="1"><g transform="translate(84.338856, 21.312106)"><g/></g></g><g fill="#ffffff" fill-opacity="1"><g transform="translate(87.146808, 21.312106)"><g><path d="M 5.449219 -3.808594 C 6.292969 -3.984375 6.972656 -4.472656 6.972656 -5.5625 C 6.972656 -6.5625 6.339844 -7.382812 4.761719 -7.382812 L 0.644531 -7.382812 L 0.644531 0 L 4.683594 0 C 6.261719 0 7.070312 -0.765625 7.070312 -2.007812 C 7.070312 -3.1875 6.371094 -3.664062 5.449219 -3.808594 Z M 4.261719 -6.105469 C 4.960938 -6.105469 5.207031 -5.796875 5.207031 -5.230469 C 5.207031 -4.695312 4.941406 -4.339844 4.207031 -4.339844 L 2.332031 -4.339844 L 2.332031 -6.105469 Z M 4.308594 -1.289062 L 2.332031 -1.289062 L 2.332031 -3.207031 L 4.207031 -3.207031 C 5.019531 -3.207031 5.316406 -2.832031 5.316406 -2.242188 C 5.316406 -1.699219 5.0625 -1.289062 4.308594 -1.289062 Z M 4.308594 -1.289062 "/></g></g></g><g fill="#ffffff" fill-opacity="1"><g transform="translate(94.660583, 21.312106)"><g><path d="M 2.332031 0.144531 C 3.464844 0.144531 4.128906 -0.421875 4.386719 -1.1875 C 4.386719 -0.734375 4.417969 -0.367188 4.472656 0 L 5.90625 0 C 5.851562 -0.476562 5.816406 -0.921875 5.816406 -1.441406 L 5.816406 -3.839844 C 5.816406 -5.019531 4.996094 -5.738281 3.308594 -5.738281 C 1.621094 -5.738281 0.644531 -4.929688 0.597656 -3.742188 L 2.210938 -3.742188 C 2.230469 -4.308594 2.585938 -4.605469 3.339844 -4.605469 C 4.085938 -4.605469 4.308594 -4.351562 4.308594 -3.964844 C 4.308594 -3.640625 4.128906 -3.496094 3.617188 -3.40625 L 2.308594 -3.1875 C 0.878906 -2.941406 0.488281 -2.363281 0.488281 -1.476562 C 0.488281 -0.476562 1.210938 0.144531 2.332031 0.144531 Z M 2.886719 -0.976562 C 2.441406 -0.976562 2.109375 -1.199219 2.109375 -1.644531 C 2.109375 -2.066406 2.34375 -2.277344 2.929688 -2.421875 L 3.398438 -2.53125 C 3.742188 -2.609375 4.019531 -2.6875 4.308594 -2.886719 L 4.308594 -2.640625 C 4.308594 -1.609375 3.753906 -0.976562 2.886719 -0.976562 Z M 2.886719 -0.976562 "/></g></g></g><g fill="#ffffff" fill-opacity="1"><g transform="translate(101.086693, 21.312106)"><g><path d="M 4.285156 -5.726562 C 3.273438 -5.726562 2.640625 -5.21875 2.285156 -4.460938 L 2.285156 -5.550781 L 0.644531 -5.550781 L 0.644531 0 L 2.285156 0 L 2.285156 -2.519531 C 2.285156 -3.839844 2.773438 -4.394531 3.652344 -4.394531 C 4.328125 -4.394531 4.707031 -4.039062 4.707031 -3.152344 L 4.707031 0 L 6.351562 0 L 6.351562 -3.40625 C 6.351562 -4.863281 5.738281 -5.726562 4.285156 -5.726562 Z M 4.285156 -5.726562 "/></g></g></g><g fill="#ffffff" fill-opacity="1"><g transform="translate(108.001139, 21.312106)"><g><path d="M 4.773438 0 L 6.726562 0 L 4.207031 -3.1875 L 6.59375 -5.507812 L 6.59375 -5.550781 L 4.628906 -5.550781 L 2.863281 -3.695312 C 2.675781 -3.484375 2.476562 -3.230469 2.285156 -2.964844 L 2.285156 -7.769531 L 0.644531 -7.769531 L 0.644531 0 L 2.285156 0 L 2.285156 -1.332031 L 3.164062 -2.175781 Z M 4.773438 0 "/></g></g></g><path fill="#5de1e6" d="M 49.96875 18.023438 C 49.964844 14.996094 48.394531 12.335938 46.03125 10.808594 L 46.03125 8.089844 C 49.765625 9.84375 52.351562 13.640625 52.351562 18.042969 C 52.351562 18.230469 52.347656 18.417969 52.335938 18.609375 C 51.574219 18.390625 50.785156 18.195312 49.96875 18.023438 " fill-opacity="1" fill-rule="nonzero"/><path fill="#5de1e6" d="M 32.757812 18.023438 C 31.941406 18.195312 31.152344 18.390625 30.390625 18.609375 C 30.378906 18.417969 30.375 18.230469 30.375 18.042969 C 30.375 13.503906 33.125 9.609375 37.046875 7.933594 L 37.046875 10.59375 C 34.484375 12.082031 32.761719 14.851562 32.757812 18.023438 " fill-opacity="1" fill-rule="nonzero"/><g clip-path="url(#8a219106fe)"><path fill="#5de1e6" d="M 33.195312 20.761719 C 34.335938 24.183594 37.5625 26.648438 41.363281 26.648438 C 45.167969 26.648438 48.390625 24.183594 49.53125 20.761719 C 50.34375 20.851562 51.144531 20.957031 51.925781 21.074219 C 50.609375 25.667969 46.378906 29.03125 41.363281 29.03125 C 36.347656 29.03125 32.117188 25.667969 30.800781 21.074219 C 31.582031 20.957031 32.382812 20.851562 33.195312 20.761719 " fill-opacity="1" fill-rule="nonzero"/></g><path fill="#ffffff" d="M 46.550781 20.492188 C 45.71875 20.4375 44.875 20.394531 44.023438 20.363281 L 44.023438 25.605469 C 44.957031 25.277344 45.8125 24.777344 46.550781 24.152344 Z M 38.703125 20.363281 C 37.851562 20.394531 37.007812 20.4375 36.175781 20.492188 L 36.175781 24.148438 C 36.914062 24.777344 37.769531 25.277344 38.703125 25.605469 Z M 41.363281 20.320312 C 40.941406 20.320312 40.519531 20.324219 40.101562 20.328125 L 40.101562 25.960938 C 40.511719 26.023438 40.933594 26.058594 41.363281 26.058594 C 41.792969 26.058594 42.214844 26.023438 42.625 25.960938 L 42.625 20.328125 C 42.207031 20.324219 41.785156 20.320312 41.363281 20.320312 Z M 36.175781 5.515625 L 36.175781 17.46875 C 37.003906 17.371094 37.847656 17.296875 38.703125 17.246094 L 38.703125 5.515625 Z M 46.550781 0 L 44.023438 0 L 44.023438 17.246094 C 44.878906 17.296875 45.722656 17.371094 46.550781 17.46875 Z M 42.625 2.964844 L 40.101562 2.964844 L 40.101562 17.1875 C 40.519531 17.175781 40.941406 17.167969 41.363281 17.167969 C 41.785156 17.167969 42.207031 17.175781 42.625 17.1875 L 42.625 2.964844 " fill-opacity="1" fill-rule="nonzero"/><g clip-path="url(#4ed42bb22c)"><path fill="#5de1e6" d="M 41.363281 19.535156 C 35.578125 19.535156 30.226562 20.167969 25.859375 21.246094 C 29.558594 19.234375 35.128906 17.953125 41.363281 17.953125 C 47.597656 17.953125 53.167969 19.234375 56.867188 21.246094 C 52.5 20.167969 47.148438 19.535156 41.363281 19.535156 " fill-opacity="1" fill-rule="nonzero"/></g></svg>