<svg xmlns="http://www.w3.org/2000/svg" xmlns:xlink="http://www.w3.org/1999/xlink" width="200" zoomAndPan="magnify" viewBox="0 0 150 60" height="80" preserveAspectRatio="xMidYMid meet" version="1.0"><defs><g/><clipPath id="1e5c6df409"><path d="M 8 34 L 44 34 L 44 48.75 L 8 48.75 Z M 8 34 " clip-rule="nonzero"/></clipPath><clipPath id="77609fd4cb"><path d="M 0 30 L 51.75 30 L 51.75 36 L 0 36 Z M 0 30 " clip-rule="nonzero"/></clipPath></defs><g fill="#ffffff" fill-opacity="1"><g transform="translate(52.091967, 35.802066)"><g><path d="M 0.726562 -4.085938 C 0.820312 -1.828125 2.21875 0.316406 6.304688 0.316406 C 10.183594 0.316406 11.691406 -1.269531 11.691406 -3.710938 C 11.691406 -5.875 10.425781 -7.066406 7.90625 -7.347656 L 5.316406 -7.664062 C 4.289062 -7.777344 3.859375 -8.316406 3.859375 -9.046875 C 3.859375 -10.015625 4.664062 -10.628906 6.171875 -10.628906 C 7.8125 -10.628906 8.632812 -9.882812 8.785156 -8.726562 L 11.5625 -8.726562 C 11.414062 -10.929688 9.882812 -12.71875 6.171875 -12.71875 C 2.683594 -12.71875 1.007812 -11.113281 1.007812 -8.878906 C 1.007812 -6.824219 2.238281 -5.613281 4.4375 -5.351562 L 7.179688 -5 C 8.28125 -4.847656 8.839844 -4.363281 8.839844 -3.429688 C 8.839844 -2.441406 8.222656 -1.789062 6.339844 -1.789062 C 4.382812 -1.789062 3.5625 -2.761719 3.488281 -4.085938 Z M 0.726562 -4.085938 "/></g></g></g><g fill="#ffffff" fill-opacity="1"><g transform="translate(64.546505, 35.802066)"><g><path d="M 3.917969 0.242188 C 5.820312 0.242188 6.9375 -0.707031 7.367188 -1.996094 C 7.367188 -1.230469 7.421875 -0.617188 7.515625 0 L 9.921875 0 C 9.828125 -0.800781 9.773438 -1.546875 9.773438 -2.425781 L 9.773438 -6.453125 C 9.773438 -8.429688 8.390625 -9.640625 5.558594 -9.640625 C 2.722656 -9.640625 1.082031 -8.28125 1.007812 -6.285156 L 3.710938 -6.285156 C 3.75 -7.234375 4.34375 -7.738281 5.613281 -7.738281 C 6.863281 -7.738281 7.234375 -7.3125 7.234375 -6.65625 C 7.234375 -6.117188 6.9375 -5.875 6.078125 -5.726562 L 3.878906 -5.351562 C 1.472656 -4.941406 0.820312 -3.972656 0.820312 -2.480469 C 0.820312 -0.800781 2.03125 0.242188 3.917969 0.242188 Z M 4.847656 -1.640625 C 4.101562 -1.640625 3.542969 -2.015625 3.542969 -2.761719 C 3.542969 -3.46875 3.933594 -3.824219 4.921875 -4.066406 L 5.707031 -4.253906 C 6.285156 -4.382812 6.75 -4.511719 7.234375 -4.847656 L 7.234375 -4.4375 C 7.234375 -2.703125 6.304688 -1.640625 4.847656 -1.640625 Z M 4.847656 -1.640625 "/></g></g></g><g fill="#ffffff" fill-opacity="1"><g transform="translate(75.341684, 35.802066)"><g><path d="M 7.125 -9.625 C 5.519531 -9.625 4.457031 -9.007812 3.804688 -7.964844 L 3.804688 -13.054688 L 1.042969 -13.054688 L 1.042969 0 L 3.804688 0 L 3.804688 -1.34375 C 4.457031 -0.316406 5.519531 0.296875 7.125 0.296875 C 10.183594 0.296875 11.433594 -1.976562 11.433594 -4.679688 C 11.433594 -7.328125 10.183594 -9.625 7.125 -9.625 Z M 6.285156 -1.863281 C 4.53125 -1.863281 3.804688 -2.761719 3.804688 -4.664062 C 3.804688 -6.566406 4.53125 -7.460938 6.285156 -7.460938 C 8.039062 -7.460938 8.652344 -6.601562 8.652344 -4.664062 C 8.652344 -2.742188 8.039062 -1.863281 6.285156 -1.863281 Z M 6.285156 -1.863281 "/></g></g></g><g fill="#ffffff" fill-opacity="1"><g transform="translate(87.441979, 35.802066)"><g><path d="M 3.917969 0.242188 C 5.820312 0.242188 6.9375 -0.707031 7.367188 -1.996094 C 7.367188 -1.230469 7.421875 -0.617188 7.515625 0 L 9.921875 0 C 9.828125 -0.800781 9.773438 -1.546875 9.773438 -2.425781 L 9.773438 -6.453125 C 9.773438 -8.429688 8.390625 -9.640625 5.558594 -9.640625 C 2.722656 -9.640625 1.082031 -8.28125 1.007812 -6.285156 L 3.710938 -6.285156 C 3.75 -7.234375 4.34375 -7.738281 5.613281 -7.738281 C 6.863281 -7.738281 7.234375 -7.3125 7.234375 -6.65625 C 7.234375 -6.117188 6.9375 -5.875 6.078125 -5.726562 L 3.878906 -5.351562 C 1.472656 -4.941406 0.820312 -3.972656 0.820312 -2.480469 C 0.820312 -0.800781 2.03125 0.242188 3.917969 0.242188 Z M 4.847656 -1.640625 C 4.101562 -1.640625 3.542969 -2.015625 3.542969 -2.761719 C 3.542969 -3.46875 3.933594 -3.824219 4.921875 -4.066406 L 5.707031 -4.253906 C 6.285156 -4.382812 6.75 -4.511719 7.234375 -4.847656 L 7.234375 -4.4375 C 7.234375 -2.703125 6.304688 -1.640625 4.847656 -1.640625 Z M 4.847656 -1.640625 "/></g></g></g><g fill="#ffffff" fill-opacity="1"><g transform="translate(98.237159, 35.802066)"><g/></g></g><g fill="#ffffff" fill-opacity="1"><g transform="translate(102.954219, 35.802066)"><g><path d="M 9.15625 -6.398438 C 10.574219 -6.695312 11.710938 -7.515625 11.710938 -9.34375 C 11.710938 -11.023438 10.648438 -12.402344 8 -12.402344 L 1.082031 -12.402344 L 1.082031 0 L 7.871094 0 C 10.519531 0 11.878906 -1.285156 11.878906 -3.375 C 11.878906 -5.351562 10.703125 -6.15625 9.15625 -6.398438 Z M 7.160156 -10.257812 C 8.335938 -10.257812 8.746094 -9.734375 8.746094 -8.785156 C 8.746094 -7.890625 8.300781 -7.292969 7.066406 -7.292969 L 3.917969 -7.292969 L 3.917969 -10.257812 Z M 7.234375 -2.164062 L 3.917969 -2.164062 L 3.917969 -5.390625 L 7.066406 -5.390625 C 8.429688 -5.390625 8.933594 -4.753906 8.933594 -3.765625 C 8.933594 -2.851562 8.503906 -2.164062 7.234375 -2.164062 Z M 7.234375 -2.164062 "/></g></g></g><g fill="#ffffff" fill-opacity="1"><g transform="translate(115.57656, 35.802066)"><g><path d="M 3.917969 0.242188 C 5.820312 0.242188 6.9375 -0.707031 7.367188 -1.996094 C 7.367188 -1.230469 7.421875 -0.617188 7.515625 0 L 9.921875 0 C 9.828125 -0.800781 9.773438 -1.546875 9.773438 -2.425781 L 9.773438 -6.453125 C 9.773438 -8.429688 8.390625 -9.640625 5.558594 -9.640625 C 2.722656 -9.640625 1.082031 -8.28125 1.007812 -6.285156 L 3.710938 -6.285156 C 3.75 -7.234375 4.34375 -7.738281 5.613281 -7.738281 C 6.863281 -7.738281 7.234375 -7.3125 7.234375 -6.65625 C 7.234375 -6.117188 6.9375 -5.875 6.078125 -5.726562 L 3.878906 -5.351562 C 1.472656 -4.941406 0.820312 -3.972656 0.820312 -2.480469 C 0.820312 -0.800781 2.03125 0.242188 3.917969 0.242188 Z M 4.847656 -1.640625 C 4.101562 -1.640625 3.542969 -2.015625 3.542969 -2.761719 C 3.542969 -3.46875 3.933594 -3.824219 4.921875 -4.066406 L 5.707031 -4.253906 C 6.285156 -4.382812 6.75 -4.511719 7.234375 -4.847656 L 7.234375 -4.4375 C 7.234375 -2.703125 6.304688 -1.640625 4.847656 -1.640625 Z M 4.847656 -1.640625 "/></g></g></g><g fill="#ffffff" fill-opacity="1"><g transform="translate(126.371739, 35.802066)"><g><path d="M 7.199219 -9.625 C 5.5 -9.625 4.4375 -8.765625 3.839844 -7.496094 L 3.839844 -9.324219 L 1.082031 -9.324219 L 1.082031 0 L 3.839844 0 L 3.839844 -4.234375 C 3.839844 -6.453125 4.664062 -7.386719 6.136719 -7.386719 C 7.273438 -7.386719 7.90625 -6.789062 7.90625 -5.296875 L 7.90625 0 L 10.667969 0 L 10.667969 -5.726562 C 10.667969 -8.167969 9.640625 -9.625 7.199219 -9.625 Z M 7.199219 -9.625 "/></g></g></g><g fill="#ffffff" fill-opacity="1"><g transform="translate(137.987272, 35.802066)"><g><path d="M 8.019531 0 L 11.300781 0 L 7.066406 -5.351562 L 11.078125 -9.25 L 11.078125 -9.324219 L 7.777344 -9.324219 L 4.8125 -6.210938 C 4.496094 -5.855469 4.160156 -5.425781 3.839844 -4.980469 L 3.839844 -13.054688 L 1.082031 -13.054688 L 1.082031 0 L 3.839844 0 L 3.839844 -2.238281 L 5.316406 -3.65625 Z M 8.019531 0 "/></g></g></g><path fill="#5de1e6" d="M 40.5 30.273438 C 40.492188 25.191406 37.859375 20.722656 33.882812 18.152344 L 33.882812 13.585938 C 40.15625 16.535156 44.503906 22.910156 44.503906 30.300781 C 44.503906 30.621094 44.492188 30.9375 44.476562 31.253906 C 43.199219 30.886719 41.871094 30.558594 40.5 30.273438 " fill-opacity="1" fill-rule="nonzero"/><path fill="#5de1e6" d="M 11.589844 30.273438 C 10.21875 30.558594 8.890625 30.886719 7.613281 31.253906 C 7.597656 30.9375 7.585938 30.621094 7.585938 30.300781 C 7.585938 22.683594 12.203125 16.140625 18.792969 13.324219 L 18.792969 17.792969 C 14.492188 20.292969 11.597656 24.945312 11.589844 30.273438 " fill-opacity="1" fill-rule="nonzero"/><g clip-path="url(#1e5c6df409)"><path fill="#5de1e6" d="M 12.324219 34.871094 C 14.238281 40.617188 19.65625 44.757812 26.042969 44.757812 C 32.433594 44.757812 37.851562 40.617188 39.765625 34.871094 C 41.128906 35.023438 42.472656 35.199219 43.789062 35.398438 C 41.578125 43.113281 34.46875 48.757812 26.042969 48.757812 C 17.621094 48.757812 10.511719 43.113281 8.300781 35.398438 C 9.617188 35.199219 10.960938 35.023438 12.324219 34.871094 " fill-opacity="1" fill-rule="nonzero"/></g><path fill="#ffffff" d="M 34.757812 34.421875 C 33.359375 34.324219 31.945312 34.253906 30.515625 34.203125 L 30.515625 43.007812 C 32.082031 42.453125 33.519531 41.617188 34.757812 40.5625 Z M 21.574219 34.203125 C 20.144531 34.253906 18.730469 34.324219 17.332031 34.421875 L 17.332031 40.5625 C 18.574219 41.617188 20.007812 42.453125 21.574219 43.007812 Z M 26.042969 34.128906 C 25.335938 34.128906 24.628906 34.132812 23.921875 34.144531 L 23.921875 43.601562 C 24.613281 43.710938 25.324219 43.769531 26.042969 43.769531 C 26.765625 43.769531 27.476562 43.710938 28.167969 43.601562 L 28.167969 34.144531 C 27.460938 34.132812 26.753906 34.128906 26.042969 34.128906 Z M 17.332031 9.265625 L 17.332031 29.339844 C 18.722656 29.175781 20.136719 29.050781 21.574219 28.96875 L 21.574219 9.265625 Z M 34.757812 0 L 30.515625 0 L 30.515625 28.96875 C 31.953125 29.050781 33.367188 29.175781 34.757812 29.339844 Z M 28.167969 4.976562 L 23.921875 4.976562 L 23.921875 28.863281 C 24.628906 28.84375 25.335938 28.835938 26.042969 28.835938 C 26.753906 28.835938 27.460938 28.84375 28.167969 28.863281 L 28.167969 4.976562 " fill-opacity="1" fill-rule="nonzero"/><g clip-path="url(#77609fd4cb)"><path fill="#5de1e6" d="M 26.042969 32.808594 C 16.328125 32.808594 7.335938 33.875 0.00390625 35.6875 C 6.21875 32.304688 15.574219 30.152344 26.042969 30.152344 C 36.515625 30.152344 45.875 32.304688 52.082031 35.6875 C 44.753906 33.875 35.761719 32.808594 26.042969 32.808594 " fill-opacity="1" fill-rule="nonzero"/></g></svg>